<mxfile host="app.diagrams.net" modified="2023-03-13T18:14:10.187Z" agent="5.0 (Macintosh; Intel Mac OS X 10_15_7) AppleWebKit/537.36 (KHTML, like Gecko) Chrome/111.0.0.0 Safari/537.36" etag="cxznwRtZcdG8-0bCwpBj" version="21.0.6" type="github" pages="2">
  <diagram name="Page-1" id="aFJhFqFk9B--9QyLlLoq">
    <mxGraphModel dx="3411" dy="2016" grid="1" gridSize="10" guides="1" tooltips="1" connect="1" arrows="1" fold="1" page="1" pageScale="1" pageWidth="850" pageHeight="1100" math="0" shadow="0">
      <root>
        <mxCell id="0" />
        <mxCell id="1" parent="0" />
        <mxCell id="rpRpTpSi7NvEV7vdiJDh-1" value="&lt;font style=&quot;font-size: 20px;&quot; color=&quot;#ffffff&quot;&gt;Semester 4&lt;br&gt;78%&lt;br&gt;159,051&lt;br&gt;&lt;/font&gt;" style="rounded=0;whiteSpace=wrap;html=1;labelBackgroundColor=none;fillStyle=solid;strokeColor=none;fillColor=#9FDB7D;gradientColor=none;" vertex="1" parent="1">
          <mxGeometry x="-1160" y="-898" width="149" height="178" as="geometry" />
        </mxCell>
        <mxCell id="rpRpTpSi7NvEV7vdiJDh-2" value="" style="verticalLabelPosition=bottom;verticalAlign=top;html=1;shape=mxgraph.basic.half_circle;flipV=1;fillColor=#8DC26F;strokeColor=#8DC26F;" vertex="1" parent="1">
          <mxGeometry x="-1198" y="-720" width="72" height="34.5" as="geometry" />
        </mxCell>
        <mxCell id="rpRpTpSi7NvEV7vdiJDh-3" value="" style="verticalLabelPosition=bottom;verticalAlign=top;html=1;shape=mxgraph.basic.half_circle;flipV=1;strokeColor=#7CAB62;fillColor=#7CAB62;" vertex="1" parent="1">
          <mxGeometry x="-1363.94" y="-685" width="105.88" height="53" as="geometry" />
        </mxCell>
        <mxCell id="rpRpTpSi7NvEV7vdiJDh-4" value="&lt;font color=&quot;#000000&quot;&gt;1%&lt;br&gt;3,789&lt;br&gt;&lt;/font&gt;" style="rounded=0;whiteSpace=wrap;html=1;labelBackgroundColor=none;fillStyle=solid;strokeColor=none;fontSize=20;fontColor=#FFFFFF;fillColor=none;gradientColor=none;container=0;" vertex="1" parent="1">
          <mxGeometry x="-1534.2" y="-975.99" width="70" height="45.99" as="geometry" />
        </mxCell>
        <mxCell id="rpRpTpSi7NvEV7vdiJDh-5" value="" style="verticalLabelPosition=bottom;verticalAlign=top;html=1;shape=mxgraph.basic.half_circle;flipV=1;rotation=-180;fillColor=#7CAB62;strokeColor=#7CAB62;" vertex="1" parent="1">
          <mxGeometry x="-1323.5" y="-925.5" width="25" height="12" as="geometry" />
        </mxCell>
        <mxCell id="rpRpTpSi7NvEV7vdiJDh-6" value="" style="group" vertex="1" connectable="0" parent="1">
          <mxGeometry x="-1040" y="-742" width="50" height="70" as="geometry" />
        </mxCell>
        <mxCell id="rpRpTpSi7NvEV7vdiJDh-7" value="" style="html=1;shadow=0;dashed=0;align=center;verticalAlign=middle;shape=mxgraph.arrows2.arrow;dy=0.53;dx=21.54;direction=south;notch=0;fillColor=#9FDB7D;strokeColor=none;" vertex="1" parent="rpRpTpSi7NvEV7vdiJDh-6">
          <mxGeometry x="18.8" y="21" width="37.75" height="39.65" as="geometry" />
        </mxCell>
        <mxCell id="rpRpTpSi7NvEV7vdiJDh-8" value="" style="verticalLabelPosition=bottom;verticalAlign=top;html=1;shape=mxgraph.basic.half_circle;flipV=1;fillColor=#9FDB7D;strokeColor=none;" vertex="1" parent="rpRpTpSi7NvEV7vdiJDh-6">
          <mxGeometry x="1.501793283338766" y="0.6666666666666669" width="45.05379850016298" height="21.33333333333334" as="geometry" />
        </mxCell>
        <mxCell id="rpRpTpSi7NvEV7vdiJDh-9" value="" style="html=1;shadow=0;dashed=0;align=center;verticalAlign=middle;shape=mxgraph.arrows2.arrow;dy=0.57;dx=13.65;direction=south;notch=0;rotation=-180;fillColor=#7CAB62;strokeColor=#7CAB62;" vertex="1" parent="1">
          <mxGeometry x="-1319.2" y="-956" width="29" height="30" as="geometry" />
        </mxCell>
        <mxCell id="rpRpTpSi7NvEV7vdiJDh-10" value="" style="html=1;shadow=0;dashed=0;align=center;verticalAlign=middle;shape=mxgraph.arrows2.arrow;dy=0.53;dx=12.67;direction=south;notch=0;rotation=-180;fillColor=#8DC26F;strokeColor=#8DC26F;" vertex="1" parent="1">
          <mxGeometry x="-1166.6" y="-942" width="26" height="32" as="geometry" />
        </mxCell>
        <mxCell id="rpRpTpSi7NvEV7vdiJDh-11" value="" style="verticalLabelPosition=bottom;verticalAlign=top;html=1;shape=mxgraph.basic.half_circle;flipV=1;rotation=-180;fillColor=#8DC26F;strokeColor=#8DC26F;" vertex="1" parent="1">
          <mxGeometry x="-1170.5" y="-909.51" width="23" height="11" as="geometry" />
        </mxCell>
        <mxCell id="rpRpTpSi7NvEV7vdiJDh-12" value="&lt;font style=&quot;font-size: 20px;&quot; color=&quot;#ffffff&quot;&gt;Semester 1&lt;br&gt;100%&lt;br&gt;358,242&lt;br&gt;&lt;/font&gt;" style="rounded=0;whiteSpace=wrap;html=1;labelBackgroundColor=none;fillStyle=solid;strokeColor=none;fillColor=#648A4F;gradientColor=none;" vertex="1" parent="1">
          <mxGeometry x="-1610" y="-930" width="150" height="400" as="geometry" />
        </mxCell>
        <mxCell id="rpRpTpSi7NvEV7vdiJDh-13" value="" style="shape=singleArrow;direction=south;whiteSpace=wrap;html=1;arrowWidth=0.5652358691032497;arrowSize=0.3602209944751394;rotation=-180;fillColor=#648A4F;strokeColor=#648A4F;" vertex="1" parent="1">
          <mxGeometry x="-1461.3" y="-937" width="5.2" height="7" as="geometry" />
        </mxCell>
        <mxCell id="rpRpTpSi7NvEV7vdiJDh-14" value="&lt;font style=&quot;font-size: 20px;&quot; color=&quot;#ffffff&quot;&gt;Semester 2&lt;br&gt;74%&lt;br&gt;263,762&lt;br&gt;&lt;/font&gt;" style="rounded=0;whiteSpace=wrap;html=1;labelBackgroundColor=none;fillStyle=solid;strokeColor=none;fillColor=#7CAB62;gradientColor=none;" vertex="1" parent="1">
          <mxGeometry x="-1460" y="-926" width="150" height="295" as="geometry" />
        </mxCell>
        <mxCell id="rpRpTpSi7NvEV7vdiJDh-15" value="" style="html=1;shadow=0;dashed=0;align=center;verticalAlign=middle;shape=mxgraph.arrows2.arrow;dy=0.48;dx=59.93;direction=south;notch=0;strokeColor=#7CAB62;fillColor=#7CAB62;" vertex="1" parent="1">
          <mxGeometry x="-1334" y="-632" width="100" height="118" as="geometry" />
        </mxCell>
        <mxCell id="rpRpTpSi7NvEV7vdiJDh-16" value="&lt;font style=&quot;font-size: 20px;&quot; color=&quot;#ffffff&quot;&gt;Semester 5&lt;br&gt;77%&lt;br&gt;122,972&lt;br&gt;&lt;/font&gt;" style="rounded=0;whiteSpace=wrap;html=1;labelBackgroundColor=none;fillStyle=solid;strokeColor=none;fillColor=#B9E0A5;gradientColor=none;" vertex="1" parent="1">
          <mxGeometry x="-1011" y="-877.5" width="150" height="137" as="geometry" />
        </mxCell>
        <mxCell id="rpRpTpSi7NvEV7vdiJDh-17" value="&lt;font color=&quot;#000000&quot;&gt;Does not enroll following semester&lt;/font&gt;" style="rounded=0;whiteSpace=wrap;html=1;labelBackgroundColor=none;fillStyle=solid;strokeColor=none;fontSize=20;fontColor=#FFFFFF;fillColor=none;gradientColor=none;" vertex="1" parent="1">
          <mxGeometry x="-1353.48" y="-390" width="233.74" height="60" as="geometry" />
        </mxCell>
        <mxCell id="rpRpTpSi7NvEV7vdiJDh-18" value="&lt;font color=&quot;#000000&quot;&gt;Completes a degree or upward transfers&lt;/font&gt;" style="rounded=0;whiteSpace=wrap;html=1;labelBackgroundColor=none;fillStyle=solid;strokeColor=none;fontSize=20;fontColor=#FFFFFF;fillColor=none;gradientColor=none;" vertex="1" parent="1">
          <mxGeometry x="-1353.48" y="-1040" width="233.74" height="60" as="geometry" />
        </mxCell>
        <mxCell id="rpRpTpSi7NvEV7vdiJDh-19" value="&lt;font color=&quot;#000000&quot;&gt;4%&lt;br&gt;11,825&lt;br&gt;&lt;/font&gt;" style="rounded=0;whiteSpace=wrap;html=1;labelBackgroundColor=none;fillStyle=solid;strokeColor=none;fontSize=20;fontColor=#FFFFFF;fillColor=none;gradientColor=none;" vertex="1" parent="1">
          <mxGeometry x="-1389.2" y="-970" width="70" height="44" as="geometry" />
        </mxCell>
        <mxCell id="rpRpTpSi7NvEV7vdiJDh-20" value="&lt;font color=&quot;#000000&quot;&gt;6%&lt;br&gt;13,154&lt;br&gt;&lt;/font&gt;" style="rounded=0;whiteSpace=wrap;html=1;labelBackgroundColor=none;fillStyle=solid;strokeColor=none;fontSize=20;fontColor=#FFFFFF;fillColor=none;gradientColor=none;" vertex="1" parent="1">
          <mxGeometry x="-1236.6" y="-959.25" width="70" height="45.75" as="geometry" />
        </mxCell>
        <mxCell id="rpRpTpSi7NvEV7vdiJDh-21" value="&lt;font color=&quot;#000000&quot;&gt;Fall 2015&lt;/font&gt;" style="rounded=0;whiteSpace=wrap;html=1;labelBackgroundColor=none;fillStyle=solid;strokeColor=none;fontSize=20;fontColor=#FFFFFF;fillColor=none;gradientColor=none;" vertex="1" parent="1">
          <mxGeometry x="-1700" y="-1070" width="130" height="60" as="geometry" />
        </mxCell>
        <mxCell id="rpRpTpSi7NvEV7vdiJDh-22" value="" style="verticalLabelPosition=bottom;verticalAlign=top;html=1;shape=mxgraph.basic.half_circle;flipV=1;fillColor=#648A4F;strokeColor=#648A4F;" vertex="1" parent="1">
          <mxGeometry x="-1548.7" y="-631" width="180" height="100.5" as="geometry" />
        </mxCell>
        <mxCell id="rpRpTpSi7NvEV7vdiJDh-23" value="" style="html=1;shadow=0;dashed=0;align=center;verticalAlign=middle;shape=mxgraph.arrows2.arrow;dy=0.44;dx=93.35;direction=south;notch=0;fillColor=#648A4F;strokeColor=#648A4F;" vertex="1" parent="1">
          <mxGeometry x="-1493.3" y="-530.3" width="159.87" height="176.3" as="geometry" />
        </mxCell>
        <mxCell id="rpRpTpSi7NvEV7vdiJDh-24" value="&lt;font color=&quot;#000000&quot;&gt;25%&lt;br&gt;90,691&lt;br&gt;&lt;/font&gt;" style="rounded=0;whiteSpace=wrap;html=1;labelBackgroundColor=none;fillStyle=solid;strokeColor=none;fontSize=20;fontColor=#FFFFFF;fillColor=none;gradientColor=none;" vertex="1" parent="1">
          <mxGeometry x="-1529.03" y="-530" width="70" height="50" as="geometry" />
        </mxCell>
        <mxCell id="rpRpTpSi7NvEV7vdiJDh-25" value="&lt;font color=&quot;#000000&quot;&gt;18%&lt;br&gt;47,937&lt;br&gt;&lt;/font&gt;" style="rounded=0;whiteSpace=wrap;html=1;labelBackgroundColor=none;fillStyle=solid;strokeColor=none;fontSize=20;fontColor=#FFFFFF;fillColor=none;gradientColor=none;" vertex="1" parent="1">
          <mxGeometry x="-1379.2" y="-631" width="60" height="51" as="geometry" />
        </mxCell>
        <mxCell id="rpRpTpSi7NvEV7vdiJDh-26" value="" style="html=1;shadow=0;dashed=0;align=center;verticalAlign=middle;shape=mxgraph.arrows2.arrow;dy=0.55;dx=42.08;direction=south;notch=0;fillColor=#8DC26F;strokeColor=#8DC26F;" vertex="1" parent="1">
          <mxGeometry x="-1179" y="-686.25" width="73" height="79" as="geometry" />
        </mxCell>
        <mxCell id="rpRpTpSi7NvEV7vdiJDh-27" value="" style="verticalLabelPosition=bottom;verticalAlign=top;html=1;shape=mxgraph.basic.half_circle;flipV=1;rotation=-180;fillColor=#648A4F;strokeColor=#648A4F;" vertex="1" parent="1">
          <mxGeometry x="-1464.2" y="-929.5" width="7" height="3" as="geometry" />
        </mxCell>
        <mxCell id="rpRpTpSi7NvEV7vdiJDh-28" value="&lt;font color=&quot;#000000&quot;&gt;12%&lt;br&gt;19,433&lt;br&gt;&lt;/font&gt;" style="rounded=0;whiteSpace=wrap;html=1;labelBackgroundColor=none;fillStyle=solid;strokeColor=none;fontSize=20;fontColor=#FFFFFF;fillColor=none;gradientColor=none;" vertex="1" parent="1">
          <mxGeometry x="-1087.8" y="-946.51" width="70" height="51.5" as="geometry" />
        </mxCell>
        <mxCell id="rpRpTpSi7NvEV7vdiJDh-29" value="&lt;font style=&quot;font-size: 20px;&quot; color=&quot;#ffffff&quot;&gt;Semester 3&lt;br&gt;77%&lt;br&gt;204,000&lt;br&gt;&lt;/font&gt;" style="rounded=0;whiteSpace=wrap;html=1;labelBackgroundColor=none;fillStyle=solid;strokeColor=none;fillColor=#8DC26F;gradientColor=none;" vertex="1" parent="1">
          <mxGeometry x="-1310" y="-913" width="150" height="228" as="geometry" />
        </mxCell>
        <mxCell id="rpRpTpSi7NvEV7vdiJDh-30" value="&lt;font color=&quot;#000000&quot;&gt;16%&lt;br&gt;31,795&lt;br&gt;&lt;/font&gt;" style="rounded=0;whiteSpace=wrap;html=1;labelBackgroundColor=none;fillStyle=solid;strokeColor=none;fontSize=20;fontColor=#FFFFFF;fillColor=none;gradientColor=none;" vertex="1" parent="1">
          <mxGeometry x="-1253" y="-685" width="60" height="45" as="geometry" />
        </mxCell>
        <mxCell id="rpRpTpSi7NvEV7vdiJDh-31" value="" style="verticalLabelPosition=bottom;verticalAlign=top;html=1;shape=mxgraph.basic.half_circle;flipV=1;rotation=-180;fillColor=#a0db7d;strokeColor=#a0db7d;" vertex="1" parent="1">
          <mxGeometry x="-1028" y="-896" width="35" height="19" as="geometry" />
        </mxCell>
        <mxCell id="rpRpTpSi7NvEV7vdiJDh-32" value="" style="html=1;shadow=0;dashed=0;align=center;verticalAlign=middle;shape=mxgraph.arrows2.arrow;dy=0.45;dx=14.29;direction=south;notch=0;rotation=-180;fillColor=#a0db7d;strokeColor=#a0db7d;" vertex="1" parent="1">
          <mxGeometry x="-1017.8" y="-934.01" width="32" height="39" as="geometry" />
        </mxCell>
        <mxCell id="rpRpTpSi7NvEV7vdiJDh-33" value="&lt;font color=&quot;#000000&quot;&gt;10%&lt;br&gt;16,646&lt;br&gt;&lt;/font&gt;" style="rounded=0;whiteSpace=wrap;html=1;labelBackgroundColor=none;fillStyle=solid;strokeColor=none;fontSize=20;fontColor=#FFFFFF;fillColor=none;gradientColor=none;" vertex="1" parent="1">
          <mxGeometry x="-1091.2" y="-721" width="70" height="48" as="geometry" />
        </mxCell>
        <mxCell id="AX7mnTqwUvaXNK33T4vt-1" value="&lt;font style=&quot;font-size: 20px;&quot; color=&quot;#ffffff&quot;&gt;Semester 4&lt;br&gt;79%&lt;br&gt;156,360&lt;br&gt;&lt;/font&gt;" style="rounded=0;whiteSpace=wrap;html=1;labelBackgroundColor=none;fillStyle=solid;strokeColor=none;fillColor=#9FDB7D;gradientColor=none;" vertex="1" parent="1">
          <mxGeometry x="-310" y="-899" width="149" height="184" as="geometry" />
        </mxCell>
        <mxCell id="AX7mnTqwUvaXNK33T4vt-2" value="" style="verticalLabelPosition=bottom;verticalAlign=top;html=1;shape=mxgraph.basic.half_circle;flipV=1;fillColor=#8DC26F;strokeColor=#8DC26F;" vertex="1" parent="1">
          <mxGeometry x="-344" y="-714.5" width="69" height="35" as="geometry" />
        </mxCell>
        <mxCell id="AX7mnTqwUvaXNK33T4vt-3" value="" style="verticalLabelPosition=bottom;verticalAlign=top;html=1;shape=mxgraph.basic.half_circle;flipV=1;strokeColor=#7CAB62;fillColor=#7CAB62;" vertex="1" parent="1">
          <mxGeometry x="-513.94" y="-678.5" width="105.88" height="53" as="geometry" />
        </mxCell>
        <mxCell id="AX7mnTqwUvaXNK33T4vt-4" value="&lt;font color=&quot;#000000&quot;&gt;1%&lt;br&gt;3,267&lt;br&gt;&lt;/font&gt;" style="rounded=0;whiteSpace=wrap;html=1;labelBackgroundColor=none;fillStyle=solid;strokeColor=none;fontSize=20;fontColor=#FFFFFF;fillColor=none;gradientColor=none;container=0;" vertex="1" parent="1">
          <mxGeometry x="-684.2" y="-975.99" width="70" height="45.99" as="geometry" />
        </mxCell>
        <mxCell id="AX7mnTqwUvaXNK33T4vt-5" value="" style="verticalLabelPosition=bottom;verticalAlign=top;html=1;shape=mxgraph.basic.half_circle;flipV=1;rotation=-180;fillColor=#7CAB62;strokeColor=#7CAB62;" vertex="1" parent="1">
          <mxGeometry x="-473.5" y="-925.5" width="25" height="12" as="geometry" />
        </mxCell>
        <mxCell id="AX7mnTqwUvaXNK33T4vt-6" value="" style="group" vertex="1" connectable="0" parent="1">
          <mxGeometry x="-190" y="-742" width="50" height="70" as="geometry" />
        </mxCell>
        <mxCell id="AX7mnTqwUvaXNK33T4vt-7" value="" style="html=1;shadow=0;dashed=0;align=center;verticalAlign=middle;shape=mxgraph.arrows2.arrow;dy=0.53;dx=21.54;direction=south;notch=0;fillColor=#9FDB7D;strokeColor=none;" vertex="1" parent="AX7mnTqwUvaXNK33T4vt-6">
          <mxGeometry x="19.25" y="26" width="37.75" height="39.65" as="geometry" />
        </mxCell>
        <mxCell id="AX7mnTqwUvaXNK33T4vt-8" value="" style="verticalLabelPosition=bottom;verticalAlign=top;html=1;shape=mxgraph.basic.half_circle;flipV=1;fillColor=#9FDB7D;strokeColor=none;" vertex="1" parent="AX7mnTqwUvaXNK33T4vt-6">
          <mxGeometry x="11" y="7" width="36" height="20" as="geometry" />
        </mxCell>
        <mxCell id="AX7mnTqwUvaXNK33T4vt-9" value="" style="html=1;shadow=0;dashed=0;align=center;verticalAlign=middle;shape=mxgraph.arrows2.arrow;dy=0.57;dx=13.65;direction=south;notch=0;rotation=-180;fillColor=#7CAB62;strokeColor=#7CAB62;" vertex="1" parent="1">
          <mxGeometry x="-469.20000000000005" y="-956" width="29" height="30" as="geometry" />
        </mxCell>
        <mxCell id="AX7mnTqwUvaXNK33T4vt-10" value="" style="html=1;shadow=0;dashed=0;align=center;verticalAlign=middle;shape=mxgraph.arrows2.arrow;dy=0.53;dx=12.67;direction=south;notch=0;rotation=-180;fillColor=#8DC26F;strokeColor=#8DC26F;" vertex="1" parent="1">
          <mxGeometry x="-317.65" y="-942" width="26" height="32" as="geometry" />
        </mxCell>
        <mxCell id="AX7mnTqwUvaXNK33T4vt-11" value="" style="verticalLabelPosition=bottom;verticalAlign=top;html=1;shape=mxgraph.basic.half_circle;flipV=1;rotation=-180;fillColor=#8DC26F;strokeColor=#8DC26F;" vertex="1" parent="1">
          <mxGeometry x="-321.5" y="-910.5" width="23" height="11" as="geometry" />
        </mxCell>
        <mxCell id="AX7mnTqwUvaXNK33T4vt-12" value="&lt;font style=&quot;font-size: 20px;&quot; color=&quot;#ffffff&quot;&gt;Semester 1&lt;br&gt;100%&lt;br&gt;340,130&lt;br&gt;&lt;/font&gt;" style="rounded=0;whiteSpace=wrap;html=1;labelBackgroundColor=none;fillStyle=solid;strokeColor=none;fillColor=#648A4F;gradientColor=none;" vertex="1" parent="1">
          <mxGeometry x="-760" y="-930" width="150" height="400" as="geometry" />
        </mxCell>
        <mxCell id="AX7mnTqwUvaXNK33T4vt-13" value="" style="shape=singleArrow;direction=south;whiteSpace=wrap;html=1;arrowWidth=0.5652358691032497;arrowSize=0.3602209944751394;rotation=-180;fillColor=#648A4F;strokeColor=#648A4F;" vertex="1" parent="1">
          <mxGeometry x="-611.27" y="-937" width="5.2" height="7" as="geometry" />
        </mxCell>
        <mxCell id="AX7mnTqwUvaXNK33T4vt-14" value="&lt;font style=&quot;font-size: 20px;&quot; color=&quot;#ffffff&quot;&gt;Semester 2&lt;br&gt;75%&lt;br&gt;256,311&lt;br&gt;&lt;/font&gt;" style="rounded=0;whiteSpace=wrap;html=1;labelBackgroundColor=none;fillStyle=solid;strokeColor=none;fillColor=#7CAB62;gradientColor=none;" vertex="1" parent="1">
          <mxGeometry x="-610" y="-926" width="150" height="301" as="geometry" />
        </mxCell>
        <mxCell id="AX7mnTqwUvaXNK33T4vt-15" value="" style="html=1;shadow=0;dashed=0;align=center;verticalAlign=middle;shape=mxgraph.arrows2.arrow;dy=0.48;dx=59.93;direction=south;notch=0;strokeColor=#7CAB62;fillColor=#7CAB62;" vertex="1" parent="1">
          <mxGeometry x="-484.1" y="-628" width="100" height="118" as="geometry" />
        </mxCell>
        <mxCell id="AX7mnTqwUvaXNK33T4vt-16" value="&lt;font style=&quot;font-size: 20px;&quot; color=&quot;#ffffff&quot;&gt;Semester 5&lt;br&gt;77%&lt;br&gt;120,592&lt;br&gt;&lt;/font&gt;" style="rounded=0;whiteSpace=wrap;html=1;labelBackgroundColor=none;fillStyle=solid;strokeColor=none;fillColor=#B9E0A5;gradientColor=none;" vertex="1" parent="1">
          <mxGeometry x="-161" y="-877" width="150" height="142" as="geometry" />
        </mxCell>
        <mxCell id="AX7mnTqwUvaXNK33T4vt-17" value="&lt;font color=&quot;#000000&quot;&gt;Does not enroll following semester&lt;/font&gt;" style="rounded=0;whiteSpace=wrap;html=1;labelBackgroundColor=none;fillStyle=solid;strokeColor=none;fontSize=20;fontColor=#FFFFFF;fillColor=none;gradientColor=none;" vertex="1" parent="1">
          <mxGeometry x="-503.48" y="-390" width="233.74" height="60" as="geometry" />
        </mxCell>
        <mxCell id="AX7mnTqwUvaXNK33T4vt-18" value="&lt;font color=&quot;#000000&quot;&gt;Completes a degree or upward transfers&lt;/font&gt;" style="rounded=0;whiteSpace=wrap;html=1;labelBackgroundColor=none;fillStyle=solid;strokeColor=none;fontSize=20;fontColor=#FFFFFF;fillColor=none;gradientColor=none;" vertex="1" parent="1">
          <mxGeometry x="-503.48" y="-1040" width="233.74" height="60" as="geometry" />
        </mxCell>
        <mxCell id="AX7mnTqwUvaXNK33T4vt-19" value="&lt;font color=&quot;#000000&quot;&gt;4%&lt;br&gt;10,990&lt;br&gt;&lt;/font&gt;" style="rounded=0;whiteSpace=wrap;html=1;labelBackgroundColor=none;fillStyle=solid;strokeColor=none;fontSize=20;fontColor=#FFFFFF;fillColor=none;gradientColor=none;" vertex="1" parent="1">
          <mxGeometry x="-539.2" y="-970" width="70" height="44" as="geometry" />
        </mxCell>
        <mxCell id="AX7mnTqwUvaXNK33T4vt-20" value="&lt;font color=&quot;#000000&quot;&gt;6%&lt;br&gt;12,155&lt;br&gt;&lt;/font&gt;" style="rounded=0;whiteSpace=wrap;html=1;labelBackgroundColor=none;fillStyle=solid;strokeColor=none;fontSize=20;fontColor=#FFFFFF;fillColor=none;gradientColor=none;" vertex="1" parent="1">
          <mxGeometry x="-386.5999999999999" y="-959.25" width="70" height="45.75" as="geometry" />
        </mxCell>
        <mxCell id="AX7mnTqwUvaXNK33T4vt-21" value="&lt;font color=&quot;#000000&quot;&gt;Fall 2016&lt;/font&gt;" style="rounded=0;whiteSpace=wrap;html=1;labelBackgroundColor=none;fillStyle=solid;strokeColor=none;fontSize=20;fontColor=#FFFFFF;fillColor=none;gradientColor=none;" vertex="1" parent="1">
          <mxGeometry x="-850" y="-1070" width="130" height="60" as="geometry" />
        </mxCell>
        <mxCell id="AX7mnTqwUvaXNK33T4vt-22" value="" style="verticalLabelPosition=bottom;verticalAlign=top;html=1;shape=mxgraph.basic.half_circle;flipV=1;fillColor=#648A4F;strokeColor=#648A4F;" vertex="1" parent="1">
          <mxGeometry x="-698.7" y="-625" width="180" height="94.5" as="geometry" />
        </mxCell>
        <mxCell id="AX7mnTqwUvaXNK33T4vt-23" value="" style="html=1;shadow=0;dashed=0;align=center;verticalAlign=middle;shape=mxgraph.arrows2.arrow;dy=0.44;dx=93.35;direction=south;notch=0;fillColor=#648A4F;strokeColor=#648A4F;" vertex="1" parent="1">
          <mxGeometry x="-643.3" y="-530.3" width="159.87" height="176.3" as="geometry" />
        </mxCell>
        <mxCell id="AX7mnTqwUvaXNK33T4vt-24" value="&lt;font color=&quot;#000000&quot;&gt;24%&lt;br&gt;80,552&lt;br&gt;&lt;/font&gt;" style="rounded=0;whiteSpace=wrap;html=1;labelBackgroundColor=none;fillStyle=solid;strokeColor=none;fontSize=20;fontColor=#FFFFFF;fillColor=none;gradientColor=none;" vertex="1" parent="1">
          <mxGeometry x="-679.03" y="-530" width="70" height="50" as="geometry" />
        </mxCell>
        <mxCell id="AX7mnTqwUvaXNK33T4vt-25" value="&lt;font color=&quot;#000000&quot;&gt;18%&lt;br&gt;46,691&lt;br&gt;&lt;/font&gt;" style="rounded=0;whiteSpace=wrap;html=1;labelBackgroundColor=none;fillStyle=solid;strokeColor=none;fontSize=20;fontColor=#FFFFFF;fillColor=none;gradientColor=none;" vertex="1" parent="1">
          <mxGeometry x="-529.2" y="-625" width="60" height="51" as="geometry" />
        </mxCell>
        <mxCell id="AX7mnTqwUvaXNK33T4vt-26" value="" style="html=1;shadow=0;dashed=0;align=center;verticalAlign=middle;shape=mxgraph.arrows2.arrow;dy=0.55;dx=42.08;direction=south;notch=0;fillColor=#8DC26F;strokeColor=#8DC26F;" vertex="1" parent="1">
          <mxGeometry x="-328" y="-681" width="73" height="79" as="geometry" />
        </mxCell>
        <mxCell id="AX7mnTqwUvaXNK33T4vt-27" value="" style="verticalLabelPosition=bottom;verticalAlign=top;html=1;shape=mxgraph.basic.half_circle;flipV=1;rotation=-180;fillColor=#648A4F;strokeColor=#648A4F;" vertex="1" parent="1">
          <mxGeometry x="-614.2" y="-929.5" width="7" height="3.1" as="geometry" />
        </mxCell>
        <mxCell id="AX7mnTqwUvaXNK33T4vt-28" value="&lt;font color=&quot;#000000&quot;&gt;12%&lt;br&gt;19,064&lt;br&gt;&lt;/font&gt;" style="rounded=0;whiteSpace=wrap;html=1;labelBackgroundColor=none;fillStyle=solid;strokeColor=none;fontSize=20;fontColor=#FFFFFF;fillColor=none;gradientColor=none;" vertex="1" parent="1">
          <mxGeometry x="-237.79999999999995" y="-946.51" width="70" height="51.5" as="geometry" />
        </mxCell>
        <mxCell id="AX7mnTqwUvaXNK33T4vt-29" value="&lt;font style=&quot;font-size: 20px;&quot; color=&quot;#ffffff&quot;&gt;Semester 3&lt;br&gt;78%&lt;br&gt;198,630&lt;br&gt;&lt;/font&gt;" style="rounded=0;whiteSpace=wrap;html=1;labelBackgroundColor=none;fillStyle=solid;strokeColor=none;fillColor=#8DC26F;gradientColor=none;" vertex="1" parent="1">
          <mxGeometry x="-460" y="-913" width="150" height="234" as="geometry" />
        </mxCell>
        <mxCell id="AX7mnTqwUvaXNK33T4vt-30" value="&lt;font color=&quot;#000000&quot;&gt;15%&lt;br&gt;30,115&lt;br&gt;&lt;/font&gt;" style="rounded=0;whiteSpace=wrap;html=1;labelBackgroundColor=none;fillStyle=solid;strokeColor=none;fontSize=20;fontColor=#FFFFFF;fillColor=none;gradientColor=none;" vertex="1" parent="1">
          <mxGeometry x="-400" y="-679.5" width="60" height="45" as="geometry" />
        </mxCell>
        <mxCell id="AX7mnTqwUvaXNK33T4vt-31" value="" style="verticalLabelPosition=bottom;verticalAlign=top;html=1;shape=mxgraph.basic.half_circle;flipV=1;rotation=-180;fillColor=#a0db7d;strokeColor=#a0db7d;" vertex="1" parent="1">
          <mxGeometry x="-178.5" y="-896" width="35" height="18.5" as="geometry" />
        </mxCell>
        <mxCell id="AX7mnTqwUvaXNK33T4vt-32" value="" style="html=1;shadow=0;dashed=0;align=center;verticalAlign=middle;shape=mxgraph.arrows2.arrow;dy=0.5;dx=15.33;direction=south;notch=0;rotation=-180;fillColor=#a0db7d;strokeColor=#a0db7d;" vertex="1" parent="1">
          <mxGeometry x="-169" y="-935" width="34" height="39" as="geometry" />
        </mxCell>
        <mxCell id="AX7mnTqwUvaXNK33T4vt-33" value="&lt;font color=&quot;#000000&quot;&gt;11%&lt;br&gt;16,704&lt;br&gt;&lt;/font&gt;" style="rounded=0;whiteSpace=wrap;html=1;labelBackgroundColor=none;fillStyle=solid;strokeColor=none;fontSize=20;fontColor=#FFFFFF;fillColor=none;gradientColor=none;" vertex="1" parent="1">
          <mxGeometry x="-241.20000000000005" y="-714.5" width="70" height="48" as="geometry" />
        </mxCell>
        <mxCell id="AX7mnTqwUvaXNK33T4vt-34" value="&lt;font style=&quot;font-size: 20px;&quot; color=&quot;#ffffff&quot;&gt;Semester 4&lt;br&gt;75%&lt;br&gt;157,941&lt;br&gt;&lt;/font&gt;" style="rounded=0;whiteSpace=wrap;html=1;labelBackgroundColor=none;fillStyle=solid;strokeColor=none;fillColor=#9FDB7D;gradientColor=none;" vertex="1" parent="1">
          <mxGeometry x="540" y="-895" width="149" height="173" as="geometry" />
        </mxCell>
        <mxCell id="AX7mnTqwUvaXNK33T4vt-35" value="" style="verticalLabelPosition=bottom;verticalAlign=top;html=1;shape=mxgraph.basic.half_circle;flipV=1;fillColor=#8DC26F;strokeColor=#8DC26F;" vertex="1" parent="1">
          <mxGeometry x="502" y="-721.5" width="75" height="42" as="geometry" />
        </mxCell>
        <mxCell id="AX7mnTqwUvaXNK33T4vt-36" value="" style="verticalLabelPosition=bottom;verticalAlign=top;html=1;shape=mxgraph.basic.half_circle;flipV=1;strokeColor=#7CAB62;fillColor=#7CAB62;" vertex="1" parent="1">
          <mxGeometry x="336.05999999999995" y="-678.5" width="105.88" height="53" as="geometry" />
        </mxCell>
        <mxCell id="AX7mnTqwUvaXNK33T4vt-37" value="&lt;font color=&quot;#000000&quot;&gt;1%&lt;br&gt;3,671&lt;br&gt;&lt;/font&gt;" style="rounded=0;whiteSpace=wrap;html=1;labelBackgroundColor=none;fillStyle=solid;strokeColor=none;fontSize=20;fontColor=#FFFFFF;fillColor=none;gradientColor=none;container=0;" vertex="1" parent="1">
          <mxGeometry x="165.79999999999995" y="-972.99" width="70" height="45.99" as="geometry" />
        </mxCell>
        <mxCell id="AX7mnTqwUvaXNK33T4vt-38" value="" style="verticalLabelPosition=bottom;verticalAlign=top;html=1;shape=mxgraph.basic.half_circle;flipV=1;rotation=-180;fillColor=#7CAB62;strokeColor=#7CAB62;" vertex="1" parent="1">
          <mxGeometry x="376.5" y="-922.5" width="25" height="13" as="geometry" />
        </mxCell>
        <mxCell id="AX7mnTqwUvaXNK33T4vt-39" value="" style="group" vertex="1" connectable="0" parent="1">
          <mxGeometry x="660" y="-750.1" width="56.55" height="70" as="geometry" />
        </mxCell>
        <mxCell id="AX7mnTqwUvaXNK33T4vt-40" value="" style="html=1;shadow=0;dashed=0;align=center;verticalAlign=middle;shape=mxgraph.arrows2.arrow;dy=0.51;dx=23;direction=south;notch=0;fillColor=#9FDB7D;strokeColor=none;" vertex="1" parent="AX7mnTqwUvaXNK33T4vt-39">
          <mxGeometry x="18.8" y="27" width="37.75" height="43" as="geometry" />
        </mxCell>
        <mxCell id="AX7mnTqwUvaXNK33T4vt-41" value="" style="verticalLabelPosition=bottom;verticalAlign=top;html=1;shape=mxgraph.basic.half_circle;flipV=1;fillColor=#9FDB7D;strokeColor=none;" vertex="1" parent="AX7mnTqwUvaXNK33T4vt-39">
          <mxGeometry x="10" y="9" width="37" height="19" as="geometry" />
        </mxCell>
        <mxCell id="AX7mnTqwUvaXNK33T4vt-42" value="" style="html=1;shadow=0;dashed=0;align=center;verticalAlign=middle;shape=mxgraph.arrows2.arrow;dy=0.57;dx=13.65;direction=south;notch=0;rotation=-180;fillColor=#7CAB62;strokeColor=#7CAB62;" vertex="1" parent="1">
          <mxGeometry x="380.79999999999995" y="-953" width="29" height="30" as="geometry" />
        </mxCell>
        <mxCell id="AX7mnTqwUvaXNK33T4vt-43" value="" style="html=1;shadow=0;dashed=0;align=center;verticalAlign=middle;shape=mxgraph.arrows2.arrow;dy=0.53;dx=12.67;direction=south;notch=0;rotation=-180;fillColor=#8DC26F;strokeColor=#8DC26F;" vertex="1" parent="1">
          <mxGeometry x="533.4000000000001" y="-940" width="26" height="32" as="geometry" />
        </mxCell>
        <mxCell id="AX7mnTqwUvaXNK33T4vt-44" value="" style="verticalLabelPosition=bottom;verticalAlign=top;html=1;shape=mxgraph.basic.half_circle;flipV=1;rotation=-180;fillColor=#8DC26F;strokeColor=#8DC26F;" vertex="1" parent="1">
          <mxGeometry x="527.5" y="-908.5" width="25" height="13" as="geometry" />
        </mxCell>
        <mxCell id="AX7mnTqwUvaXNK33T4vt-45" value="&lt;font style=&quot;font-size: 20px;&quot; color=&quot;#ffffff&quot;&gt;Semester 1&lt;br&gt;100%&lt;br&gt;365,508&lt;br&gt;&lt;/font&gt;" style="rounded=0;whiteSpace=wrap;html=1;labelBackgroundColor=none;fillStyle=solid;strokeColor=none;fillColor=#648A4F;gradientColor=none;" vertex="1" parent="1">
          <mxGeometry x="90" y="-927" width="150" height="400" as="geometry" />
        </mxCell>
        <mxCell id="AX7mnTqwUvaXNK33T4vt-46" value="" style="shape=singleArrow;direction=south;whiteSpace=wrap;html=1;arrowWidth=0.5652358691032497;arrowSize=0.3602209944751394;rotation=-180;fillColor=#648A4F;strokeColor=#648A4F;" vertex="1" parent="1">
          <mxGeometry x="238.70000000000005" y="-934" width="5.2" height="7" as="geometry" />
        </mxCell>
        <mxCell id="AX7mnTqwUvaXNK33T4vt-47" value="&lt;font style=&quot;font-size: 20px;&quot; color=&quot;#ffffff&quot;&gt;Semester 2&lt;br&gt;75%&lt;br&gt;273,224&lt;br&gt;&lt;/font&gt;" style="rounded=0;whiteSpace=wrap;html=1;labelBackgroundColor=none;fillStyle=solid;strokeColor=none;fillColor=#7CAB62;gradientColor=none;" vertex="1" parent="1">
          <mxGeometry x="240" y="-923" width="150" height="299" as="geometry" />
        </mxCell>
        <mxCell id="AX7mnTqwUvaXNK33T4vt-48" value="" style="html=1;shadow=0;dashed=0;align=center;verticalAlign=middle;shape=mxgraph.arrows2.arrow;dy=0.48;dx=59.93;direction=south;notch=0;strokeColor=#7CAB62;fillColor=#7CAB62;" vertex="1" parent="1">
          <mxGeometry x="366" y="-628.5" width="100" height="118" as="geometry" />
        </mxCell>
        <mxCell id="AX7mnTqwUvaXNK33T4vt-49" value="&lt;font style=&quot;font-size: 20px;&quot; color=&quot;#ffffff&quot;&gt;Semester 5&lt;br&gt;77%&lt;br&gt;120,978&lt;br&gt;&lt;/font&gt;" style="rounded=0;whiteSpace=wrap;html=1;labelBackgroundColor=none;fillStyle=solid;strokeColor=none;fillColor=#B9E0A5;gradientColor=none;" vertex="1" parent="1">
          <mxGeometry x="689" y="-873" width="150" height="132" as="geometry" />
        </mxCell>
        <mxCell id="AX7mnTqwUvaXNK33T4vt-50" value="&lt;font color=&quot;#000000&quot;&gt;Does not enroll following semester&lt;/font&gt;" style="rounded=0;whiteSpace=wrap;html=1;labelBackgroundColor=none;fillStyle=solid;strokeColor=none;fontSize=20;fontColor=#FFFFFF;fillColor=none;gradientColor=none;" vertex="1" parent="1">
          <mxGeometry x="346.52" y="-387" width="233.74" height="60" as="geometry" />
        </mxCell>
        <mxCell id="AX7mnTqwUvaXNK33T4vt-51" value="&lt;font color=&quot;#000000&quot;&gt;Completes a degree or upward transfers&lt;/font&gt;" style="rounded=0;whiteSpace=wrap;html=1;labelBackgroundColor=none;fillStyle=solid;strokeColor=none;fontSize=20;fontColor=#FFFFFF;fillColor=none;gradientColor=none;" vertex="1" parent="1">
          <mxGeometry x="346.52" y="-1037" width="233.74" height="60" as="geometry" />
        </mxCell>
        <mxCell id="AX7mnTqwUvaXNK33T4vt-52" value="&lt;font color=&quot;#000000&quot;&gt;5%&lt;br&gt;12,350&lt;br&gt;&lt;/font&gt;" style="rounded=0;whiteSpace=wrap;html=1;labelBackgroundColor=none;fillStyle=solid;strokeColor=none;fontSize=20;fontColor=#FFFFFF;fillColor=none;gradientColor=none;" vertex="1" parent="1">
          <mxGeometry x="310.79999999999995" y="-967" width="70" height="44" as="geometry" />
        </mxCell>
        <mxCell id="AX7mnTqwUvaXNK33T4vt-53" value="&lt;font color=&quot;#000000&quot;&gt;6%&lt;br&gt;13,506&lt;br&gt;&lt;/font&gt;" style="rounded=0;whiteSpace=wrap;html=1;labelBackgroundColor=none;fillStyle=solid;strokeColor=none;fontSize=20;fontColor=#FFFFFF;fillColor=none;gradientColor=none;" vertex="1" parent="1">
          <mxGeometry x="463.4000000000001" y="-956.25" width="70" height="45.75" as="geometry" />
        </mxCell>
        <mxCell id="AX7mnTqwUvaXNK33T4vt-54" value="&lt;font color=&quot;#000000&quot;&gt;Fall 2017&lt;/font&gt;" style="rounded=0;whiteSpace=wrap;html=1;labelBackgroundColor=none;fillStyle=solid;strokeColor=none;fontSize=20;fontColor=#FFFFFF;fillColor=none;gradientColor=none;" vertex="1" parent="1">
          <mxGeometry y="-1067" width="130" height="60" as="geometry" />
        </mxCell>
        <mxCell id="AX7mnTqwUvaXNK33T4vt-55" value="" style="verticalLabelPosition=bottom;verticalAlign=top;html=1;shape=mxgraph.basic.half_circle;flipV=1;fillColor=#648A4F;strokeColor=#648A4F;" vertex="1" parent="1">
          <mxGeometry x="151.29999999999995" y="-623.5" width="180" height="96" as="geometry" />
        </mxCell>
        <mxCell id="AX7mnTqwUvaXNK33T4vt-56" value="" style="html=1;shadow=0;dashed=0;align=center;verticalAlign=middle;shape=mxgraph.arrows2.arrow;dy=0.44;dx=93.35;direction=south;notch=0;fillColor=#648A4F;strokeColor=#648A4F;" vertex="1" parent="1">
          <mxGeometry x="206.70000000000005" y="-527.3" width="159.87" height="176.3" as="geometry" />
        </mxCell>
        <mxCell id="AX7mnTqwUvaXNK33T4vt-57" value="&lt;font color=&quot;#000000&quot;&gt;24%&lt;br&gt;88,613&lt;br&gt;&lt;/font&gt;" style="rounded=0;whiteSpace=wrap;html=1;labelBackgroundColor=none;fillStyle=solid;strokeColor=none;fontSize=20;fontColor=#FFFFFF;fillColor=none;gradientColor=none;" vertex="1" parent="1">
          <mxGeometry x="170.97000000000003" y="-527" width="70" height="50" as="geometry" />
        </mxCell>
        <mxCell id="AX7mnTqwUvaXNK33T4vt-58" value="&lt;font color=&quot;#000000&quot;&gt;19%&lt;br&gt;50,835&lt;br&gt;&lt;/font&gt;" style="rounded=0;whiteSpace=wrap;html=1;labelBackgroundColor=none;fillStyle=solid;strokeColor=none;fontSize=20;fontColor=#FFFFFF;fillColor=none;gradientColor=none;" vertex="1" parent="1">
          <mxGeometry x="320.79999999999995" y="-623.5" width="60" height="51" as="geometry" />
        </mxCell>
        <mxCell id="AX7mnTqwUvaXNK33T4vt-59" value="" style="html=1;shadow=0;dashed=0;align=center;verticalAlign=middle;shape=mxgraph.arrows2.arrow;dy=0.55;dx=42.08;direction=south;notch=0;fillColor=#8DC26F;strokeColor=#8DC26F;" vertex="1" parent="1">
          <mxGeometry x="519.5" y="-681" width="79.3" height="81" as="geometry" />
        </mxCell>
        <mxCell id="AX7mnTqwUvaXNK33T4vt-60" value="" style="verticalLabelPosition=bottom;verticalAlign=top;html=1;shape=mxgraph.basic.half_circle;flipV=1;rotation=-180;fillColor=#648A4F;strokeColor=#648A4F;" vertex="1" parent="1">
          <mxGeometry x="235.79999999999995" y="-926.5" width="7" height="3" as="geometry" />
        </mxCell>
        <mxCell id="AX7mnTqwUvaXNK33T4vt-61" value="&lt;font color=&quot;#000000&quot;&gt;13%&lt;br&gt;20,166&lt;br&gt;&lt;/font&gt;" style="rounded=0;whiteSpace=wrap;html=1;labelBackgroundColor=none;fillStyle=solid;strokeColor=none;fontSize=20;fontColor=#FFFFFF;fillColor=none;gradientColor=none;" vertex="1" parent="1">
          <mxGeometry x="612.2" y="-943.51" width="70" height="51.5" as="geometry" />
        </mxCell>
        <mxCell id="AX7mnTqwUvaXNK33T4vt-62" value="&lt;font style=&quot;font-size: 20px;&quot; color=&quot;#ffffff&quot;&gt;Semester 3&lt;br&gt;77%&lt;br&gt;210,039&lt;br&gt;&lt;/font&gt;" style="rounded=0;whiteSpace=wrap;html=1;labelBackgroundColor=none;fillStyle=solid;strokeColor=none;fillColor=#8DC26F;gradientColor=none;" vertex="1" parent="1">
          <mxGeometry x="390" y="-909" width="150" height="230" as="geometry" />
        </mxCell>
        <mxCell id="AX7mnTqwUvaXNK33T4vt-63" value="&lt;font color=&quot;#000000&quot;&gt;18%&lt;br&gt;38,592&lt;br&gt;&lt;/font&gt;" style="rounded=0;whiteSpace=wrap;html=1;labelBackgroundColor=none;fillStyle=solid;strokeColor=none;fontSize=20;fontColor=#FFFFFF;fillColor=none;gradientColor=none;" vertex="1" parent="1">
          <mxGeometry x="450" y="-676" width="60" height="45" as="geometry" />
        </mxCell>
        <mxCell id="AX7mnTqwUvaXNK33T4vt-64" value="" style="verticalLabelPosition=bottom;verticalAlign=top;html=1;shape=mxgraph.basic.half_circle;flipV=1;rotation=-180;fillColor=#a0db7d;strokeColor=#a0db7d;" vertex="1" parent="1">
          <mxGeometry x="672" y="-894" width="35" height="20.5" as="geometry" />
        </mxCell>
        <mxCell id="AX7mnTqwUvaXNK33T4vt-65" value="" style="html=1;shadow=0;dashed=0;align=center;verticalAlign=middle;shape=mxgraph.arrows2.arrow;dy=0.45;dx=14.29;direction=south;notch=0;rotation=-180;fillColor=#a0db7d;strokeColor=#a0db7d;" vertex="1" parent="1">
          <mxGeometry x="682.2" y="-932" width="32" height="39" as="geometry" />
        </mxCell>
        <mxCell id="AX7mnTqwUvaXNK33T4vt-66" value="&lt;font color=&quot;#000000&quot;&gt;11%&lt;br&gt;16,797&lt;br&gt;&lt;/font&gt;" style="rounded=0;whiteSpace=wrap;html=1;labelBackgroundColor=none;fillStyle=solid;strokeColor=none;fontSize=20;fontColor=#FFFFFF;fillColor=none;gradientColor=none;" vertex="1" parent="1">
          <mxGeometry x="608.8" y="-722" width="70" height="48" as="geometry" />
        </mxCell>
        <mxCell id="AX7mnTqwUvaXNK33T4vt-67" value="&lt;font style=&quot;font-size: 20px;&quot; color=&quot;#ffffff&quot;&gt;Semester 4&lt;br&gt;78%&lt;br&gt;159,630&lt;br&gt;&lt;/font&gt;" style="rounded=0;whiteSpace=wrap;html=1;labelBackgroundColor=none;fillStyle=solid;strokeColor=none;fillColor=#9FDB7D;gradientColor=none;" vertex="1" parent="1">
          <mxGeometry x="-1155" y="172" width="149" height="178" as="geometry" />
        </mxCell>
        <mxCell id="AX7mnTqwUvaXNK33T4vt-68" value="" style="verticalLabelPosition=bottom;verticalAlign=top;html=1;shape=mxgraph.basic.half_circle;flipV=1;fillColor=#8DC26F;strokeColor=#8DC26F;" vertex="1" parent="1">
          <mxGeometry x="-1193" y="350" width="72" height="34.5" as="geometry" />
        </mxCell>
        <mxCell id="AX7mnTqwUvaXNK33T4vt-69" value="" style="verticalLabelPosition=bottom;verticalAlign=top;html=1;shape=mxgraph.basic.half_circle;flipV=1;strokeColor=#7CAB62;fillColor=#7CAB62;" vertex="1" parent="1">
          <mxGeometry x="-1358.94" y="385" width="105.88" height="53" as="geometry" />
        </mxCell>
        <mxCell id="AX7mnTqwUvaXNK33T4vt-70" value="&lt;font color=&quot;#000000&quot;&gt;1%&lt;br&gt;4,169&lt;br&gt;&lt;/font&gt;" style="rounded=0;whiteSpace=wrap;html=1;labelBackgroundColor=none;fillStyle=solid;strokeColor=none;fontSize=20;fontColor=#FFFFFF;fillColor=none;gradientColor=none;container=0;" vertex="1" parent="1">
          <mxGeometry x="-1529.2" y="94.00999999999999" width="70" height="45.99" as="geometry" />
        </mxCell>
        <mxCell id="AX7mnTqwUvaXNK33T4vt-71" value="" style="verticalLabelPosition=bottom;verticalAlign=top;html=1;shape=mxgraph.basic.half_circle;flipV=1;rotation=-180;fillColor=#7CAB62;strokeColor=#7CAB62;" vertex="1" parent="1">
          <mxGeometry x="-1318.5" y="144.5" width="25" height="12" as="geometry" />
        </mxCell>
        <mxCell id="AX7mnTqwUvaXNK33T4vt-72" value="" style="group" vertex="1" connectable="0" parent="1">
          <mxGeometry x="-1035" y="328" width="50" height="70" as="geometry" />
        </mxCell>
        <mxCell id="AX7mnTqwUvaXNK33T4vt-73" value="" style="html=1;shadow=0;dashed=0;align=center;verticalAlign=middle;shape=mxgraph.arrows2.arrow;dy=0.53;dx=21.54;direction=south;notch=0;fillColor=#9FDB7D;strokeColor=none;" vertex="1" parent="AX7mnTqwUvaXNK33T4vt-72">
          <mxGeometry x="18.8" y="21" width="37.75" height="39.65" as="geometry" />
        </mxCell>
        <mxCell id="AX7mnTqwUvaXNK33T4vt-74" value="" style="verticalLabelPosition=bottom;verticalAlign=top;html=1;shape=mxgraph.basic.half_circle;flipV=1;fillColor=#9FDB7D;strokeColor=none;" vertex="1" parent="AX7mnTqwUvaXNK33T4vt-72">
          <mxGeometry x="1.501793283338766" y="0.6666666666666669" width="45.05379850016298" height="21.33333333333334" as="geometry" />
        </mxCell>
        <mxCell id="AX7mnTqwUvaXNK33T4vt-75" value="" style="html=1;shadow=0;dashed=0;align=center;verticalAlign=middle;shape=mxgraph.arrows2.arrow;dy=0.57;dx=13.65;direction=south;notch=0;rotation=-180;fillColor=#7CAB62;strokeColor=#7CAB62;" vertex="1" parent="1">
          <mxGeometry x="-1314.2" y="114" width="29" height="30" as="geometry" />
        </mxCell>
        <mxCell id="AX7mnTqwUvaXNK33T4vt-76" value="" style="html=1;shadow=0;dashed=0;align=center;verticalAlign=middle;shape=mxgraph.arrows2.arrow;dy=0.53;dx=12.67;direction=south;notch=0;rotation=-180;fillColor=#8DC26F;strokeColor=#8DC26F;" vertex="1" parent="1">
          <mxGeometry x="-1161.6" y="128" width="26" height="32" as="geometry" />
        </mxCell>
        <mxCell id="AX7mnTqwUvaXNK33T4vt-77" value="" style="verticalLabelPosition=bottom;verticalAlign=top;html=1;shape=mxgraph.basic.half_circle;flipV=1;rotation=-180;fillColor=#8DC26F;strokeColor=#8DC26F;" vertex="1" parent="1">
          <mxGeometry x="-1165.5" y="160.49" width="23" height="11" as="geometry" />
        </mxCell>
        <mxCell id="AX7mnTqwUvaXNK33T4vt-78" value="&lt;font style=&quot;font-size: 20px;&quot; color=&quot;#ffffff&quot;&gt;Semester 1&lt;br&gt;100%&lt;br&gt;365,250&lt;br&gt;&lt;/font&gt;" style="rounded=0;whiteSpace=wrap;html=1;labelBackgroundColor=none;fillStyle=solid;strokeColor=none;fillColor=#648A4F;gradientColor=none;" vertex="1" parent="1">
          <mxGeometry x="-1605" y="140" width="150" height="400" as="geometry" />
        </mxCell>
        <mxCell id="AX7mnTqwUvaXNK33T4vt-79" value="" style="shape=singleArrow;direction=south;whiteSpace=wrap;html=1;arrowWidth=0.5652358691032497;arrowSize=0.3602209944751394;rotation=-180;fillColor=#648A4F;strokeColor=#648A4F;" vertex="1" parent="1">
          <mxGeometry x="-1456.3" y="133" width="5.2" height="7" as="geometry" />
        </mxCell>
        <mxCell id="AX7mnTqwUvaXNK33T4vt-80" value="&lt;font style=&quot;font-size: 20px;&quot; color=&quot;#ffffff&quot;&gt;Semester 2&lt;br&gt;73%&lt;br&gt;264,847&lt;br&gt;&lt;/font&gt;" style="rounded=0;whiteSpace=wrap;html=1;labelBackgroundColor=none;fillStyle=solid;strokeColor=none;fillColor=#7CAB62;gradientColor=none;" vertex="1" parent="1">
          <mxGeometry x="-1455" y="144" width="150" height="295" as="geometry" />
        </mxCell>
        <mxCell id="AX7mnTqwUvaXNK33T4vt-81" value="" style="html=1;shadow=0;dashed=0;align=center;verticalAlign=middle;shape=mxgraph.arrows2.arrow;dy=0.48;dx=59.93;direction=south;notch=0;strokeColor=#7CAB62;fillColor=#7CAB62;" vertex="1" parent="1">
          <mxGeometry x="-1329" y="438" width="100" height="118" as="geometry" />
        </mxCell>
        <mxCell id="AX7mnTqwUvaXNK33T4vt-82" value="&lt;font style=&quot;font-size: 20px;&quot; color=&quot;#ffffff&quot;&gt;Semester 5&lt;br&gt;76%&lt;br&gt;121,620&lt;br&gt;&lt;/font&gt;" style="rounded=0;whiteSpace=wrap;html=1;labelBackgroundColor=none;fillStyle=solid;strokeColor=none;fillColor=#B9E0A5;gradientColor=none;" vertex="1" parent="1">
          <mxGeometry x="-1006" y="192.5" width="150" height="137" as="geometry" />
        </mxCell>
        <mxCell id="AX7mnTqwUvaXNK33T4vt-83" value="&lt;font color=&quot;#000000&quot;&gt;Does not enroll following semester&lt;/font&gt;" style="rounded=0;whiteSpace=wrap;html=1;labelBackgroundColor=none;fillStyle=solid;strokeColor=none;fontSize=20;fontColor=#FFFFFF;fillColor=none;gradientColor=none;" vertex="1" parent="1">
          <mxGeometry x="-1348.48" y="680" width="233.74" height="60" as="geometry" />
        </mxCell>
        <mxCell id="AX7mnTqwUvaXNK33T4vt-84" value="&lt;font color=&quot;#000000&quot;&gt;Completes a degree or upward transfers&lt;/font&gt;" style="rounded=0;whiteSpace=wrap;html=1;labelBackgroundColor=none;fillStyle=solid;strokeColor=none;fontSize=20;fontColor=#FFFFFF;fillColor=none;gradientColor=none;" vertex="1" parent="1">
          <mxGeometry x="-1348.48" y="30" width="233.74" height="60" as="geometry" />
        </mxCell>
        <mxCell id="AX7mnTqwUvaXNK33T4vt-85" value="&lt;font color=&quot;#000000&quot;&gt;5%&lt;br&gt;12,558&lt;br&gt;&lt;/font&gt;" style="rounded=0;whiteSpace=wrap;html=1;labelBackgroundColor=none;fillStyle=solid;strokeColor=none;fontSize=20;fontColor=#FFFFFF;fillColor=none;gradientColor=none;" vertex="1" parent="1">
          <mxGeometry x="-1384.2" y="100" width="70" height="44" as="geometry" />
        </mxCell>
        <mxCell id="AX7mnTqwUvaXNK33T4vt-86" value="&lt;font color=&quot;#000000&quot;&gt;6%&lt;br&gt;12,934&lt;br&gt;&lt;/font&gt;" style="rounded=0;whiteSpace=wrap;html=1;labelBackgroundColor=none;fillStyle=solid;strokeColor=none;fontSize=20;fontColor=#FFFFFF;fillColor=none;gradientColor=none;" vertex="1" parent="1">
          <mxGeometry x="-1231.6" y="110.75" width="70" height="45.75" as="geometry" />
        </mxCell>
        <mxCell id="AX7mnTqwUvaXNK33T4vt-87" value="&lt;font color=&quot;#000000&quot;&gt;Fall 2018&lt;/font&gt;" style="rounded=0;whiteSpace=wrap;html=1;labelBackgroundColor=none;fillStyle=solid;strokeColor=none;fontSize=20;fontColor=#FFFFFF;fillColor=none;gradientColor=none;" vertex="1" parent="1">
          <mxGeometry x="-1695" width="130" height="60" as="geometry" />
        </mxCell>
        <mxCell id="AX7mnTqwUvaXNK33T4vt-88" value="" style="verticalLabelPosition=bottom;verticalAlign=top;html=1;shape=mxgraph.basic.half_circle;flipV=1;fillColor=#648A4F;strokeColor=#648A4F;" vertex="1" parent="1">
          <mxGeometry x="-1543.7" y="439" width="180" height="100.5" as="geometry" />
        </mxCell>
        <mxCell id="AX7mnTqwUvaXNK33T4vt-89" value="" style="html=1;shadow=0;dashed=0;align=center;verticalAlign=middle;shape=mxgraph.arrows2.arrow;dy=0.44;dx=93.35;direction=south;notch=0;fillColor=#648A4F;strokeColor=#648A4F;" vertex="1" parent="1">
          <mxGeometry x="-1488.3" y="539.7" width="159.87" height="176.3" as="geometry" />
        </mxCell>
        <mxCell id="AX7mnTqwUvaXNK33T4vt-90" value="&lt;font color=&quot;#000000&quot;&gt;26%&lt;br&gt;96,234&lt;br&gt;&lt;/font&gt;" style="rounded=0;whiteSpace=wrap;html=1;labelBackgroundColor=none;fillStyle=solid;strokeColor=none;fontSize=20;fontColor=#FFFFFF;fillColor=none;gradientColor=none;" vertex="1" parent="1">
          <mxGeometry x="-1524.03" y="540" width="70" height="50" as="geometry" />
        </mxCell>
        <mxCell id="AX7mnTqwUvaXNK33T4vt-91" value="&lt;font color=&quot;#000000&quot;&gt;18%&lt;br&gt;47,894&lt;/font&gt;&lt;font color=&quot;#000000&quot;&gt;&lt;br&gt;&lt;/font&gt;" style="rounded=0;whiteSpace=wrap;html=1;labelBackgroundColor=none;fillStyle=solid;strokeColor=none;fontSize=20;fontColor=#FFFFFF;fillColor=none;gradientColor=none;" vertex="1" parent="1">
          <mxGeometry x="-1374.2" y="439" width="60" height="51" as="geometry" />
        </mxCell>
        <mxCell id="AX7mnTqwUvaXNK33T4vt-92" value="" style="html=1;shadow=0;dashed=0;align=center;verticalAlign=middle;shape=mxgraph.arrows2.arrow;dy=0.55;dx=42.08;direction=south;notch=0;fillColor=#8DC26F;strokeColor=#8DC26F;" vertex="1" parent="1">
          <mxGeometry x="-1174" y="383.75" width="73" height="79" as="geometry" />
        </mxCell>
        <mxCell id="AX7mnTqwUvaXNK33T4vt-93" value="" style="verticalLabelPosition=bottom;verticalAlign=top;html=1;shape=mxgraph.basic.half_circle;flipV=1;rotation=-180;fillColor=#648A4F;strokeColor=#648A4F;" vertex="1" parent="1">
          <mxGeometry x="-1459.2" y="140.5" width="7" height="3" as="geometry" />
        </mxCell>
        <mxCell id="AX7mnTqwUvaXNK33T4vt-94" value="&lt;font color=&quot;#000000&quot;&gt;13%&lt;br&gt;20,415&lt;br&gt;&lt;/font&gt;" style="rounded=0;whiteSpace=wrap;html=1;labelBackgroundColor=none;fillStyle=solid;strokeColor=none;fontSize=20;fontColor=#FFFFFF;fillColor=none;gradientColor=none;" vertex="1" parent="1">
          <mxGeometry x="-1082.8" y="123.49000000000001" width="70" height="51.5" as="geometry" />
        </mxCell>
        <mxCell id="AX7mnTqwUvaXNK33T4vt-95" value="&lt;font style=&quot;font-size: 20px;&quot; color=&quot;#ffffff&quot;&gt;Semester 3&lt;br&gt;77%&lt;br&gt;204,395&lt;br&gt;&lt;/font&gt;" style="rounded=0;whiteSpace=wrap;html=1;labelBackgroundColor=none;fillStyle=solid;strokeColor=none;fillColor=#8DC26F;gradientColor=none;" vertex="1" parent="1">
          <mxGeometry x="-1305" y="157" width="150" height="228" as="geometry" />
        </mxCell>
        <mxCell id="AX7mnTqwUvaXNK33T4vt-96" value="&lt;font color=&quot;#000000&quot;&gt;16%&lt;br&gt;31,831&lt;br&gt;&lt;/font&gt;" style="rounded=0;whiteSpace=wrap;html=1;labelBackgroundColor=none;fillStyle=solid;strokeColor=none;fontSize=20;fontColor=#FFFFFF;fillColor=none;gradientColor=none;" vertex="1" parent="1">
          <mxGeometry x="-1239" y="389" width="60" height="45" as="geometry" />
        </mxCell>
        <mxCell id="AX7mnTqwUvaXNK33T4vt-97" value="" style="verticalLabelPosition=bottom;verticalAlign=top;html=1;shape=mxgraph.basic.half_circle;flipV=1;rotation=-180;fillColor=#a0db7d;strokeColor=#a0db7d;" vertex="1" parent="1">
          <mxGeometry x="-1023" y="174" width="35" height="19" as="geometry" />
        </mxCell>
        <mxCell id="AX7mnTqwUvaXNK33T4vt-98" value="" style="html=1;shadow=0;dashed=0;align=center;verticalAlign=middle;shape=mxgraph.arrows2.arrow;dy=0.45;dx=14.29;direction=south;notch=0;rotation=-180;fillColor=#a0db7d;strokeColor=#a0db7d;" vertex="1" parent="1">
          <mxGeometry x="-1012.8" y="135.99" width="32" height="39" as="geometry" />
        </mxCell>
        <mxCell id="AX7mnTqwUvaXNK33T4vt-99" value="&lt;font color=&quot;#000000&quot;&gt;11%&lt;br&gt;17,595&lt;br&gt;&lt;/font&gt;" style="rounded=0;whiteSpace=wrap;html=1;labelBackgroundColor=none;fillStyle=solid;strokeColor=none;fontSize=20;fontColor=#FFFFFF;fillColor=none;gradientColor=none;" vertex="1" parent="1">
          <mxGeometry x="-1086.2" y="349" width="70" height="48" as="geometry" />
        </mxCell>
        <mxCell id="AX7mnTqwUvaXNK33T4vt-100" value="&lt;font style=&quot;font-size: 20px;&quot; color=&quot;#ffffff&quot;&gt;Semester 4&lt;br&gt;78%&lt;br&gt;159,051&lt;br&gt;&lt;/font&gt;" style="rounded=0;whiteSpace=wrap;html=1;labelBackgroundColor=none;fillStyle=solid;strokeColor=none;fillColor=#9FDB7D;gradientColor=none;" vertex="1" parent="1">
          <mxGeometry x="-310" y="172" width="149" height="178" as="geometry" />
        </mxCell>
        <mxCell id="AX7mnTqwUvaXNK33T4vt-101" value="" style="verticalLabelPosition=bottom;verticalAlign=top;html=1;shape=mxgraph.basic.half_circle;flipV=1;fillColor=#8DC26F;strokeColor=#8DC26F;" vertex="1" parent="1">
          <mxGeometry x="-348" y="350" width="72" height="34.5" as="geometry" />
        </mxCell>
        <mxCell id="AX7mnTqwUvaXNK33T4vt-102" value="" style="verticalLabelPosition=bottom;verticalAlign=top;html=1;shape=mxgraph.basic.half_circle;flipV=1;strokeColor=#7CAB62;fillColor=#7CAB62;" vertex="1" parent="1">
          <mxGeometry x="-513.94" y="385" width="105.88" height="53" as="geometry" />
        </mxCell>
        <mxCell id="AX7mnTqwUvaXNK33T4vt-103" value="&lt;font color=&quot;#000000&quot;&gt;1%&lt;br&gt;3,789&lt;br&gt;&lt;/font&gt;" style="rounded=0;whiteSpace=wrap;html=1;labelBackgroundColor=none;fillStyle=solid;strokeColor=none;fontSize=20;fontColor=#FFFFFF;fillColor=none;gradientColor=none;container=0;" vertex="1" parent="1">
          <mxGeometry x="-684.2" y="94.00999999999999" width="70" height="45.99" as="geometry" />
        </mxCell>
        <mxCell id="AX7mnTqwUvaXNK33T4vt-104" value="" style="verticalLabelPosition=bottom;verticalAlign=top;html=1;shape=mxgraph.basic.half_circle;flipV=1;rotation=-180;fillColor=#7CAB62;strokeColor=#7CAB62;" vertex="1" parent="1">
          <mxGeometry x="-473.5" y="144.5" width="25" height="12" as="geometry" />
        </mxCell>
        <mxCell id="AX7mnTqwUvaXNK33T4vt-105" value="" style="group" vertex="1" connectable="0" parent="1">
          <mxGeometry x="-190" y="328" width="50" height="70" as="geometry" />
        </mxCell>
        <mxCell id="AX7mnTqwUvaXNK33T4vt-106" value="" style="html=1;shadow=0;dashed=0;align=center;verticalAlign=middle;shape=mxgraph.arrows2.arrow;dy=0.53;dx=21.54;direction=south;notch=0;fillColor=#9FDB7D;strokeColor=none;" vertex="1" parent="AX7mnTqwUvaXNK33T4vt-105">
          <mxGeometry x="18.8" y="21" width="37.75" height="39.65" as="geometry" />
        </mxCell>
        <mxCell id="AX7mnTqwUvaXNK33T4vt-107" value="" style="verticalLabelPosition=bottom;verticalAlign=top;html=1;shape=mxgraph.basic.half_circle;flipV=1;fillColor=#9FDB7D;strokeColor=none;" vertex="1" parent="AX7mnTqwUvaXNK33T4vt-105">
          <mxGeometry x="1.501793283338766" y="0.6666666666666669" width="45.05379850016298" height="21.33333333333334" as="geometry" />
        </mxCell>
        <mxCell id="AX7mnTqwUvaXNK33T4vt-108" value="" style="html=1;shadow=0;dashed=0;align=center;verticalAlign=middle;shape=mxgraph.arrows2.arrow;dy=0.57;dx=13.65;direction=south;notch=0;rotation=-180;fillColor=#7CAB62;strokeColor=#7CAB62;" vertex="1" parent="1">
          <mxGeometry x="-469.20000000000005" y="114" width="29" height="30" as="geometry" />
        </mxCell>
        <mxCell id="AX7mnTqwUvaXNK33T4vt-109" value="" style="html=1;shadow=0;dashed=0;align=center;verticalAlign=middle;shape=mxgraph.arrows2.arrow;dy=0.53;dx=12.67;direction=south;notch=0;rotation=-180;fillColor=#8DC26F;strokeColor=#8DC26F;" vertex="1" parent="1">
          <mxGeometry x="-316.5999999999999" y="128" width="26" height="32" as="geometry" />
        </mxCell>
        <mxCell id="AX7mnTqwUvaXNK33T4vt-110" value="" style="verticalLabelPosition=bottom;verticalAlign=top;html=1;shape=mxgraph.basic.half_circle;flipV=1;rotation=-180;fillColor=#8DC26F;strokeColor=#8DC26F;" vertex="1" parent="1">
          <mxGeometry x="-320.5" y="160.49" width="23" height="11" as="geometry" />
        </mxCell>
        <mxCell id="AX7mnTqwUvaXNK33T4vt-111" value="&lt;font style=&quot;font-size: 20px;&quot; color=&quot;#ffffff&quot;&gt;Semester 1&lt;br&gt;100%&lt;br&gt;358,242&lt;br&gt;&lt;/font&gt;" style="rounded=0;whiteSpace=wrap;html=1;labelBackgroundColor=none;fillStyle=solid;strokeColor=none;fillColor=#648A4F;gradientColor=none;" vertex="1" parent="1">
          <mxGeometry x="-760" y="140" width="150" height="400" as="geometry" />
        </mxCell>
        <mxCell id="AX7mnTqwUvaXNK33T4vt-112" value="" style="shape=singleArrow;direction=south;whiteSpace=wrap;html=1;arrowWidth=0.5652358691032497;arrowSize=0.3602209944751394;rotation=-180;fillColor=#648A4F;strokeColor=#648A4F;" vertex="1" parent="1">
          <mxGeometry x="-611.3" y="133" width="5.2" height="7" as="geometry" />
        </mxCell>
        <mxCell id="AX7mnTqwUvaXNK33T4vt-113" value="&lt;font style=&quot;font-size: 20px;&quot; color=&quot;#ffffff&quot;&gt;Semester 2&lt;br&gt;74%&lt;br&gt;263,762&lt;br&gt;&lt;/font&gt;" style="rounded=0;whiteSpace=wrap;html=1;labelBackgroundColor=none;fillStyle=solid;strokeColor=none;fillColor=#7CAB62;gradientColor=none;" vertex="1" parent="1">
          <mxGeometry x="-610" y="144" width="150" height="295" as="geometry" />
        </mxCell>
        <mxCell id="AX7mnTqwUvaXNK33T4vt-114" value="" style="html=1;shadow=0;dashed=0;align=center;verticalAlign=middle;shape=mxgraph.arrows2.arrow;dy=0.48;dx=59.93;direction=south;notch=0;strokeColor=#7CAB62;fillColor=#7CAB62;" vertex="1" parent="1">
          <mxGeometry x="-484" y="438" width="100" height="118" as="geometry" />
        </mxCell>
        <mxCell id="AX7mnTqwUvaXNK33T4vt-115" value="&lt;font style=&quot;font-size: 20px;&quot; color=&quot;#ffffff&quot;&gt;Semester 5&lt;br&gt;77%&lt;br&gt;122,972&lt;br&gt;&lt;/font&gt;" style="rounded=0;whiteSpace=wrap;html=1;labelBackgroundColor=none;fillStyle=solid;strokeColor=none;fillColor=#B9E0A5;gradientColor=none;" vertex="1" parent="1">
          <mxGeometry x="-161" y="192.5" width="150" height="137" as="geometry" />
        </mxCell>
        <mxCell id="AX7mnTqwUvaXNK33T4vt-116" value="&lt;font color=&quot;#000000&quot;&gt;Does not enroll following semester&lt;/font&gt;" style="rounded=0;whiteSpace=wrap;html=1;labelBackgroundColor=none;fillStyle=solid;strokeColor=none;fontSize=20;fontColor=#FFFFFF;fillColor=none;gradientColor=none;" vertex="1" parent="1">
          <mxGeometry x="-503.48" y="680" width="233.74" height="60" as="geometry" />
        </mxCell>
        <mxCell id="AX7mnTqwUvaXNK33T4vt-117" value="&lt;font color=&quot;#000000&quot;&gt;Completes a degree or upward transfers&lt;/font&gt;" style="rounded=0;whiteSpace=wrap;html=1;labelBackgroundColor=none;fillStyle=solid;strokeColor=none;fontSize=20;fontColor=#FFFFFF;fillColor=none;gradientColor=none;" vertex="1" parent="1">
          <mxGeometry x="-503.48" y="30" width="233.74" height="60" as="geometry" />
        </mxCell>
        <mxCell id="AX7mnTqwUvaXNK33T4vt-118" value="&lt;font color=&quot;#000000&quot;&gt;4%&lt;br&gt;11,825&lt;br&gt;&lt;/font&gt;" style="rounded=0;whiteSpace=wrap;html=1;labelBackgroundColor=none;fillStyle=solid;strokeColor=none;fontSize=20;fontColor=#FFFFFF;fillColor=none;gradientColor=none;" vertex="1" parent="1">
          <mxGeometry x="-539.2" y="100" width="70" height="44" as="geometry" />
        </mxCell>
        <mxCell id="AX7mnTqwUvaXNK33T4vt-119" value="&lt;font color=&quot;#000000&quot;&gt;6%&lt;br&gt;13,154&lt;br&gt;&lt;/font&gt;" style="rounded=0;whiteSpace=wrap;html=1;labelBackgroundColor=none;fillStyle=solid;strokeColor=none;fontSize=20;fontColor=#FFFFFF;fillColor=none;gradientColor=none;" vertex="1" parent="1">
          <mxGeometry x="-386.5999999999999" y="110.75" width="70" height="45.75" as="geometry" />
        </mxCell>
        <mxCell id="AX7mnTqwUvaXNK33T4vt-120" value="&lt;font color=&quot;#000000&quot;&gt;Fall 2019&lt;/font&gt;" style="rounded=0;whiteSpace=wrap;html=1;labelBackgroundColor=none;fillStyle=solid;strokeColor=none;fontSize=20;fontColor=#FFFFFF;fillColor=none;gradientColor=none;" vertex="1" parent="1">
          <mxGeometry x="-850" width="130" height="60" as="geometry" />
        </mxCell>
        <mxCell id="AX7mnTqwUvaXNK33T4vt-121" value="" style="verticalLabelPosition=bottom;verticalAlign=top;html=1;shape=mxgraph.basic.half_circle;flipV=1;fillColor=#648A4F;strokeColor=#648A4F;" vertex="1" parent="1">
          <mxGeometry x="-698.7" y="439" width="180" height="100.5" as="geometry" />
        </mxCell>
        <mxCell id="AX7mnTqwUvaXNK33T4vt-122" value="" style="html=1;shadow=0;dashed=0;align=center;verticalAlign=middle;shape=mxgraph.arrows2.arrow;dy=0.44;dx=93.35;direction=south;notch=0;fillColor=#648A4F;strokeColor=#648A4F;" vertex="1" parent="1">
          <mxGeometry x="-643.3" y="539.7" width="159.87" height="176.3" as="geometry" />
        </mxCell>
        <mxCell id="AX7mnTqwUvaXNK33T4vt-123" value="&lt;font color=&quot;#000000&quot;&gt;25%&lt;br&gt;90,691&lt;br&gt;&lt;/font&gt;" style="rounded=0;whiteSpace=wrap;html=1;labelBackgroundColor=none;fillStyle=solid;strokeColor=none;fontSize=20;fontColor=#FFFFFF;fillColor=none;gradientColor=none;" vertex="1" parent="1">
          <mxGeometry x="-679.03" y="540" width="70" height="50" as="geometry" />
        </mxCell>
        <mxCell id="AX7mnTqwUvaXNK33T4vt-124" value="&lt;font color=&quot;#000000&quot;&gt;18%&lt;br&gt;47,937&lt;br&gt;&lt;/font&gt;" style="rounded=0;whiteSpace=wrap;html=1;labelBackgroundColor=none;fillStyle=solid;strokeColor=none;fontSize=20;fontColor=#FFFFFF;fillColor=none;gradientColor=none;" vertex="1" parent="1">
          <mxGeometry x="-529.2" y="439" width="60" height="51" as="geometry" />
        </mxCell>
        <mxCell id="AX7mnTqwUvaXNK33T4vt-125" value="" style="html=1;shadow=0;dashed=0;align=center;verticalAlign=middle;shape=mxgraph.arrows2.arrow;dy=0.55;dx=42.08;direction=south;notch=0;fillColor=#8DC26F;strokeColor=#8DC26F;" vertex="1" parent="1">
          <mxGeometry x="-329" y="383.75" width="73" height="79" as="geometry" />
        </mxCell>
        <mxCell id="AX7mnTqwUvaXNK33T4vt-126" value="" style="verticalLabelPosition=bottom;verticalAlign=top;html=1;shape=mxgraph.basic.half_circle;flipV=1;rotation=-180;fillColor=#648A4F;strokeColor=#648A4F;" vertex="1" parent="1">
          <mxGeometry x="-614.2" y="140.5" width="7" height="3" as="geometry" />
        </mxCell>
        <mxCell id="AX7mnTqwUvaXNK33T4vt-127" value="&lt;font color=&quot;#000000&quot;&gt;12%&lt;br&gt;19,433&lt;br&gt;&lt;/font&gt;" style="rounded=0;whiteSpace=wrap;html=1;labelBackgroundColor=none;fillStyle=solid;strokeColor=none;fontSize=20;fontColor=#FFFFFF;fillColor=none;gradientColor=none;" vertex="1" parent="1">
          <mxGeometry x="-237.79999999999995" y="123.49000000000001" width="70" height="51.5" as="geometry" />
        </mxCell>
        <mxCell id="AX7mnTqwUvaXNK33T4vt-128" value="&lt;font style=&quot;font-size: 20px;&quot; color=&quot;#ffffff&quot;&gt;Semester 3&lt;br&gt;77%&lt;br&gt;204,000&lt;br&gt;&lt;/font&gt;" style="rounded=0;whiteSpace=wrap;html=1;labelBackgroundColor=none;fillStyle=solid;strokeColor=none;fillColor=#8DC26F;gradientColor=none;" vertex="1" parent="1">
          <mxGeometry x="-460" y="157" width="150" height="228" as="geometry" />
        </mxCell>
        <mxCell id="AX7mnTqwUvaXNK33T4vt-129" value="&lt;font color=&quot;#000000&quot;&gt;16%&lt;br&gt;31,795&lt;br&gt;&lt;/font&gt;" style="rounded=0;whiteSpace=wrap;html=1;labelBackgroundColor=none;fillStyle=solid;strokeColor=none;fontSize=20;fontColor=#FFFFFF;fillColor=none;gradientColor=none;" vertex="1" parent="1">
          <mxGeometry x="-400" y="383.75" width="60" height="45" as="geometry" />
        </mxCell>
        <mxCell id="AX7mnTqwUvaXNK33T4vt-130" value="" style="verticalLabelPosition=bottom;verticalAlign=top;html=1;shape=mxgraph.basic.half_circle;flipV=1;rotation=-180;fillColor=#a0db7d;strokeColor=#a0db7d;" vertex="1" parent="1">
          <mxGeometry x="-178" y="174" width="35" height="19" as="geometry" />
        </mxCell>
        <mxCell id="AX7mnTqwUvaXNK33T4vt-131" value="" style="html=1;shadow=0;dashed=0;align=center;verticalAlign=middle;shape=mxgraph.arrows2.arrow;dy=0.45;dx=14.29;direction=south;notch=0;rotation=-180;fillColor=#a0db7d;strokeColor=#a0db7d;" vertex="1" parent="1">
          <mxGeometry x="-167.79999999999995" y="135.99" width="32" height="39" as="geometry" />
        </mxCell>
        <mxCell id="AX7mnTqwUvaXNK33T4vt-132" value="&lt;font color=&quot;#000000&quot;&gt;10%&lt;br&gt;16,646&lt;br&gt;&lt;/font&gt;" style="rounded=0;whiteSpace=wrap;html=1;labelBackgroundColor=none;fillStyle=solid;strokeColor=none;fontSize=20;fontColor=#FFFFFF;fillColor=none;gradientColor=none;" vertex="1" parent="1">
          <mxGeometry x="-241.20000000000005" y="349" width="70" height="48" as="geometry" />
        </mxCell>
        <mxCell id="AX7mnTqwUvaXNK33T4vt-133" value="&lt;font style=&quot;font-size: 20px;&quot; color=&quot;#ffffff&quot;&gt;Semester 4&lt;br&gt;78%&lt;br&gt;159,051&lt;br&gt;&lt;/font&gt;" style="rounded=0;whiteSpace=wrap;html=1;labelBackgroundColor=none;fillStyle=solid;strokeColor=none;fillColor=#9FDB7D;gradientColor=none;" vertex="1" parent="1">
          <mxGeometry x="540" y="175" width="149" height="178" as="geometry" />
        </mxCell>
        <mxCell id="AX7mnTqwUvaXNK33T4vt-134" value="" style="verticalLabelPosition=bottom;verticalAlign=top;html=1;shape=mxgraph.basic.half_circle;flipV=1;fillColor=#8DC26F;strokeColor=#8DC26F;" vertex="1" parent="1">
          <mxGeometry x="502" y="353" width="72" height="34.5" as="geometry" />
        </mxCell>
        <mxCell id="AX7mnTqwUvaXNK33T4vt-135" value="" style="verticalLabelPosition=bottom;verticalAlign=top;html=1;shape=mxgraph.basic.half_circle;flipV=1;strokeColor=#7CAB62;fillColor=#7CAB62;" vertex="1" parent="1">
          <mxGeometry x="336.05999999999995" y="388" width="105.88" height="53" as="geometry" />
        </mxCell>
        <mxCell id="AX7mnTqwUvaXNK33T4vt-136" value="&lt;font color=&quot;#000000&quot;&gt;1%&lt;br&gt;3,789&lt;br&gt;&lt;/font&gt;" style="rounded=0;whiteSpace=wrap;html=1;labelBackgroundColor=none;fillStyle=solid;strokeColor=none;fontSize=20;fontColor=#FFFFFF;fillColor=none;gradientColor=none;container=0;" vertex="1" parent="1">
          <mxGeometry x="165.79999999999995" y="97.00999999999999" width="70" height="45.99" as="geometry" />
        </mxCell>
        <mxCell id="AX7mnTqwUvaXNK33T4vt-137" value="" style="verticalLabelPosition=bottom;verticalAlign=top;html=1;shape=mxgraph.basic.half_circle;flipV=1;rotation=-180;fillColor=#7CAB62;strokeColor=#7CAB62;" vertex="1" parent="1">
          <mxGeometry x="376.5" y="147.5" width="25" height="12" as="geometry" />
        </mxCell>
        <mxCell id="AX7mnTqwUvaXNK33T4vt-138" value="" style="group" vertex="1" connectable="0" parent="1">
          <mxGeometry x="660" y="331" width="50" height="70" as="geometry" />
        </mxCell>
        <mxCell id="AX7mnTqwUvaXNK33T4vt-139" value="" style="html=1;shadow=0;dashed=0;align=center;verticalAlign=middle;shape=mxgraph.arrows2.arrow;dy=0.53;dx=21.54;direction=south;notch=0;fillColor=#9FDB7D;strokeColor=none;" vertex="1" parent="AX7mnTqwUvaXNK33T4vt-138">
          <mxGeometry x="18.8" y="21" width="37.75" height="39.65" as="geometry" />
        </mxCell>
        <mxCell id="AX7mnTqwUvaXNK33T4vt-140" value="" style="verticalLabelPosition=bottom;verticalAlign=top;html=1;shape=mxgraph.basic.half_circle;flipV=1;fillColor=#9FDB7D;strokeColor=none;" vertex="1" parent="AX7mnTqwUvaXNK33T4vt-138">
          <mxGeometry x="1.501793283338766" y="0.6666666666666669" width="45.05379850016298" height="21.33333333333334" as="geometry" />
        </mxCell>
        <mxCell id="AX7mnTqwUvaXNK33T4vt-141" value="" style="html=1;shadow=0;dashed=0;align=center;verticalAlign=middle;shape=mxgraph.arrows2.arrow;dy=0.57;dx=13.65;direction=south;notch=0;rotation=-180;fillColor=#7CAB62;strokeColor=#7CAB62;" vertex="1" parent="1">
          <mxGeometry x="380.79999999999995" y="117" width="29" height="30" as="geometry" />
        </mxCell>
        <mxCell id="AX7mnTqwUvaXNK33T4vt-142" value="" style="html=1;shadow=0;dashed=0;align=center;verticalAlign=middle;shape=mxgraph.arrows2.arrow;dy=0.53;dx=12.67;direction=south;notch=0;rotation=-180;fillColor=#8DC26F;strokeColor=#8DC26F;" vertex="1" parent="1">
          <mxGeometry x="533.4000000000001" y="131" width="26" height="32" as="geometry" />
        </mxCell>
        <mxCell id="AX7mnTqwUvaXNK33T4vt-143" value="" style="verticalLabelPosition=bottom;verticalAlign=top;html=1;shape=mxgraph.basic.half_circle;flipV=1;rotation=-180;fillColor=#8DC26F;strokeColor=#8DC26F;" vertex="1" parent="1">
          <mxGeometry x="529.5" y="163.49" width="23" height="11" as="geometry" />
        </mxCell>
        <mxCell id="AX7mnTqwUvaXNK33T4vt-144" value="&lt;font style=&quot;font-size: 20px;&quot; color=&quot;#ffffff&quot;&gt;Semester 1&lt;br&gt;100%&lt;br&gt;358,242&lt;br&gt;&lt;/font&gt;" style="rounded=0;whiteSpace=wrap;html=1;labelBackgroundColor=none;fillStyle=solid;strokeColor=none;fillColor=#648A4F;gradientColor=none;" vertex="1" parent="1">
          <mxGeometry x="90" y="143" width="150" height="400" as="geometry" />
        </mxCell>
        <mxCell id="AX7mnTqwUvaXNK33T4vt-145" value="" style="shape=singleArrow;direction=south;whiteSpace=wrap;html=1;arrowWidth=0.5652358691032497;arrowSize=0.3602209944751394;rotation=-180;fillColor=#648A4F;strokeColor=#648A4F;" vertex="1" parent="1">
          <mxGeometry x="238.70000000000005" y="136" width="5.2" height="7" as="geometry" />
        </mxCell>
        <mxCell id="AX7mnTqwUvaXNK33T4vt-146" value="&lt;font style=&quot;font-size: 20px;&quot; color=&quot;#ffffff&quot;&gt;Semester 2&lt;br&gt;74%&lt;br&gt;263,762&lt;br&gt;&lt;/font&gt;" style="rounded=0;whiteSpace=wrap;html=1;labelBackgroundColor=none;fillStyle=solid;strokeColor=none;fillColor=#7CAB62;gradientColor=none;" vertex="1" parent="1">
          <mxGeometry x="240" y="147" width="150" height="295" as="geometry" />
        </mxCell>
        <mxCell id="AX7mnTqwUvaXNK33T4vt-147" value="" style="html=1;shadow=0;dashed=0;align=center;verticalAlign=middle;shape=mxgraph.arrows2.arrow;dy=0.48;dx=59.93;direction=south;notch=0;strokeColor=#7CAB62;fillColor=#7CAB62;" vertex="1" parent="1">
          <mxGeometry x="366" y="441" width="100" height="118" as="geometry" />
        </mxCell>
        <mxCell id="AX7mnTqwUvaXNK33T4vt-148" value="&lt;font style=&quot;font-size: 20px;&quot; color=&quot;#ffffff&quot;&gt;Semester 5&lt;br&gt;77%&lt;br&gt;122,972&lt;br&gt;&lt;/font&gt;" style="rounded=0;whiteSpace=wrap;html=1;labelBackgroundColor=none;fillStyle=solid;strokeColor=none;fillColor=#B9E0A5;gradientColor=none;" vertex="1" parent="1">
          <mxGeometry x="689" y="195.5" width="150" height="137" as="geometry" />
        </mxCell>
        <mxCell id="AX7mnTqwUvaXNK33T4vt-149" value="&lt;font color=&quot;#000000&quot;&gt;Does not enroll following semester&lt;/font&gt;" style="rounded=0;whiteSpace=wrap;html=1;labelBackgroundColor=none;fillStyle=solid;strokeColor=none;fontSize=20;fontColor=#FFFFFF;fillColor=none;gradientColor=none;" vertex="1" parent="1">
          <mxGeometry x="346.52" y="683" width="233.74" height="60" as="geometry" />
        </mxCell>
        <mxCell id="AX7mnTqwUvaXNK33T4vt-150" value="&lt;font color=&quot;#000000&quot;&gt;Completes a degree or upward transfers&lt;/font&gt;" style="rounded=0;whiteSpace=wrap;html=1;labelBackgroundColor=none;fillStyle=solid;strokeColor=none;fontSize=20;fontColor=#FFFFFF;fillColor=none;gradientColor=none;" vertex="1" parent="1">
          <mxGeometry x="346.52" y="33" width="233.74" height="60" as="geometry" />
        </mxCell>
        <mxCell id="AX7mnTqwUvaXNK33T4vt-151" value="&lt;font color=&quot;#000000&quot;&gt;4%&lt;br&gt;11,825&lt;br&gt;&lt;/font&gt;" style="rounded=0;whiteSpace=wrap;html=1;labelBackgroundColor=none;fillStyle=solid;strokeColor=none;fontSize=20;fontColor=#FFFFFF;fillColor=none;gradientColor=none;" vertex="1" parent="1">
          <mxGeometry x="310.79999999999995" y="103" width="70" height="44" as="geometry" />
        </mxCell>
        <mxCell id="AX7mnTqwUvaXNK33T4vt-152" value="&lt;font color=&quot;#000000&quot;&gt;6%&lt;br&gt;13,154&lt;br&gt;&lt;/font&gt;" style="rounded=0;whiteSpace=wrap;html=1;labelBackgroundColor=none;fillStyle=solid;strokeColor=none;fontSize=20;fontColor=#FFFFFF;fillColor=none;gradientColor=none;" vertex="1" parent="1">
          <mxGeometry x="463.4000000000001" y="113.75" width="70" height="45.75" as="geometry" />
        </mxCell>
        <mxCell id="AX7mnTqwUvaXNK33T4vt-153" value="&lt;font color=&quot;#000000&quot;&gt;Fall 2020&lt;/font&gt;" style="rounded=0;whiteSpace=wrap;html=1;labelBackgroundColor=none;fillStyle=solid;strokeColor=none;fontSize=20;fontColor=#FFFFFF;fillColor=none;gradientColor=none;" vertex="1" parent="1">
          <mxGeometry y="3" width="130" height="60" as="geometry" />
        </mxCell>
        <mxCell id="AX7mnTqwUvaXNK33T4vt-154" value="" style="verticalLabelPosition=bottom;verticalAlign=top;html=1;shape=mxgraph.basic.half_circle;flipV=1;fillColor=#648A4F;strokeColor=#648A4F;" vertex="1" parent="1">
          <mxGeometry x="151.29999999999995" y="442" width="180" height="100.5" as="geometry" />
        </mxCell>
        <mxCell id="AX7mnTqwUvaXNK33T4vt-155" value="" style="html=1;shadow=0;dashed=0;align=center;verticalAlign=middle;shape=mxgraph.arrows2.arrow;dy=0.44;dx=93.35;direction=south;notch=0;fillColor=#648A4F;strokeColor=#648A4F;" vertex="1" parent="1">
          <mxGeometry x="206.70000000000005" y="542.7" width="159.87" height="176.3" as="geometry" />
        </mxCell>
        <mxCell id="AX7mnTqwUvaXNK33T4vt-156" value="&lt;font color=&quot;#000000&quot;&gt;25%&lt;br&gt;90,691&lt;br&gt;&lt;/font&gt;" style="rounded=0;whiteSpace=wrap;html=1;labelBackgroundColor=none;fillStyle=solid;strokeColor=none;fontSize=20;fontColor=#FFFFFF;fillColor=none;gradientColor=none;" vertex="1" parent="1">
          <mxGeometry x="170.97000000000003" y="543" width="70" height="50" as="geometry" />
        </mxCell>
        <mxCell id="AX7mnTqwUvaXNK33T4vt-157" value="&lt;font color=&quot;#000000&quot;&gt;18%&lt;br&gt;47,937&lt;br&gt;&lt;/font&gt;" style="rounded=0;whiteSpace=wrap;html=1;labelBackgroundColor=none;fillStyle=solid;strokeColor=none;fontSize=20;fontColor=#FFFFFF;fillColor=none;gradientColor=none;" vertex="1" parent="1">
          <mxGeometry x="320.79999999999995" y="442" width="60" height="51" as="geometry" />
        </mxCell>
        <mxCell id="AX7mnTqwUvaXNK33T4vt-158" value="" style="html=1;shadow=0;dashed=0;align=center;verticalAlign=middle;shape=mxgraph.arrows2.arrow;dy=0.55;dx=42.08;direction=south;notch=0;fillColor=#8DC26F;strokeColor=#8DC26F;" vertex="1" parent="1">
          <mxGeometry x="521" y="386.75" width="73" height="79" as="geometry" />
        </mxCell>
        <mxCell id="AX7mnTqwUvaXNK33T4vt-159" value="" style="verticalLabelPosition=bottom;verticalAlign=top;html=1;shape=mxgraph.basic.half_circle;flipV=1;rotation=-180;fillColor=#648A4F;strokeColor=#648A4F;" vertex="1" parent="1">
          <mxGeometry x="235.79999999999995" y="143.5" width="7" height="3" as="geometry" />
        </mxCell>
        <mxCell id="AX7mnTqwUvaXNK33T4vt-160" value="&lt;font color=&quot;#000000&quot;&gt;12%&lt;br&gt;19,433&lt;br&gt;&lt;/font&gt;" style="rounded=0;whiteSpace=wrap;html=1;labelBackgroundColor=none;fillStyle=solid;strokeColor=none;fontSize=20;fontColor=#FFFFFF;fillColor=none;gradientColor=none;" vertex="1" parent="1">
          <mxGeometry x="612.2" y="126.49000000000001" width="70" height="51.5" as="geometry" />
        </mxCell>
        <mxCell id="AX7mnTqwUvaXNK33T4vt-161" value="&lt;font style=&quot;font-size: 20px;&quot; color=&quot;#ffffff&quot;&gt;Semester 3&lt;br&gt;77%&lt;br&gt;204,000&lt;br&gt;&lt;/font&gt;" style="rounded=0;whiteSpace=wrap;html=1;labelBackgroundColor=none;fillStyle=solid;strokeColor=none;fillColor=#8DC26F;gradientColor=none;" vertex="1" parent="1">
          <mxGeometry x="390" y="160" width="150" height="228" as="geometry" />
        </mxCell>
        <mxCell id="AX7mnTqwUvaXNK33T4vt-162" value="&lt;font color=&quot;#000000&quot;&gt;16%&lt;br&gt;31,795&lt;br&gt;&lt;/font&gt;" style="rounded=0;whiteSpace=wrap;html=1;labelBackgroundColor=none;fillStyle=solid;strokeColor=none;fontSize=20;fontColor=#FFFFFF;fillColor=none;gradientColor=none;" vertex="1" parent="1">
          <mxGeometry x="450" y="386.75" width="60" height="45" as="geometry" />
        </mxCell>
        <mxCell id="AX7mnTqwUvaXNK33T4vt-163" value="" style="verticalLabelPosition=bottom;verticalAlign=top;html=1;shape=mxgraph.basic.half_circle;flipV=1;rotation=-180;fillColor=#a0db7d;strokeColor=#a0db7d;" vertex="1" parent="1">
          <mxGeometry x="672" y="177" width="35" height="19" as="geometry" />
        </mxCell>
        <mxCell id="AX7mnTqwUvaXNK33T4vt-164" value="" style="html=1;shadow=0;dashed=0;align=center;verticalAlign=middle;shape=mxgraph.arrows2.arrow;dy=0.45;dx=14.29;direction=south;notch=0;rotation=-180;fillColor=#a0db7d;strokeColor=#a0db7d;" vertex="1" parent="1">
          <mxGeometry x="682.2" y="138.99" width="32" height="39" as="geometry" />
        </mxCell>
        <mxCell id="AX7mnTqwUvaXNK33T4vt-165" value="&lt;font color=&quot;#000000&quot;&gt;10%&lt;br&gt;16,646&lt;br&gt;&lt;/font&gt;" style="rounded=0;whiteSpace=wrap;html=1;labelBackgroundColor=none;fillStyle=solid;strokeColor=none;fontSize=20;fontColor=#FFFFFF;fillColor=none;gradientColor=none;" vertex="1" parent="1">
          <mxGeometry x="608.8" y="352" width="70" height="48" as="geometry" />
        </mxCell>
      </root>
    </mxGraphModel>
  </diagram>
  <diagram id="CHflGyfiij0r2jJOW-ct" name="Page-2">
    <mxGraphModel dx="954" dy="616" grid="1" gridSize="10" guides="1" tooltips="1" connect="1" arrows="1" fold="1" page="1" pageScale="1" pageWidth="850" pageHeight="1100" math="0" shadow="0">
      <root>
        <mxCell id="0" />
        <mxCell id="1" parent="0" />
      </root>
    </mxGraphModel>
  </diagram>
</mxfile>
